<?xml version="1.0" standalone="no"?>
<!DOCTYPE svg PUBLIC "-//W3C//DTD SVG 20010904//EN"
 "http://www.w3.org/TR/2001/REC-SVG-20010904/DTD/svg10.dtd">
<svg version="1.0" xmlns="http://www.w3.org/2000/svg"
 width="512.000000pt" height="512.000000pt" viewBox="0 0 512.000000 512.000000"
 preserveAspectRatio="xMidYMid meet">

<g transform="translate(0.000000,512.000000) scale(0.100000,-0.100000)"
fill="#000000" stroke="none">
<path d="M2494 4109 c-391 -51 -713 -594 -774 -1304 -45 -537 66 -1082 295
-1435 68 -106 223 -256 305 -297 229 -115 443 -69 645 136 93 95 146 173 220
326 96 197 155 399 192 650 24 170 25 582 0 750 -65 443 -222 807 -433 1004
-144 134 -293 191 -450 170z m198 -59 c331 -102 599 -581 670 -1195 15 -137
15 -457 0 -590 -32 -267 -109 -542 -206 -733 -50 -99 -147 -230 -223 -303
-129 -123 -240 -174 -378 -173 -334 3 -633 372 -759 937 -81 362 -81 778 0
1141 144 648 520 1032 896 916z"/>
<path d="M2735 3600 c-47 -46 -85 -87 -85 -92 0 -23 33 -18 60 7 33 31 43 29
105 -20 l30 -24 -34 -35 c-31 -32 -35 -56 -8 -56 6 0 30 18 53 41 l42 41 -26
97 c-14 53 -31 102 -38 110 -11 12 -26 1 -99 -69z"/>
<path d="M2440 3327 c-36 -34 -146 -138 -245 -231 -99 -92 -184 -177 -189
-187 -6 -12 0 -53 18 -123 l26 -105 0 -559 c0 -421 3 -561 12 -570 9 -9 125
-12 459 -12 398 0 448 2 453 16 3 9 6 254 6 546 l0 530 -33 -29 c-19 -15 -45
-48 -58 -73 -23 -44 -25 -45 -78 -48 -37 -2 -59 -9 -68 -20 -14 -19 -38 -88
-48 -139 l-7 -33 111 0 c104 0 111 -1 111 -20 0 -20 -7 -20 -395 -20 -388 0
-395 0 -395 20 0 20 7 20 270 20 209 0 270 3 270 13 0 6 -7 48 -15 92 -22 124
-20 143 25 218 22 36 40 68 40 71 0 4 -140 6 -311 6 -171 0 -309 4 -307 9 3 7
160 157 402 382 l71 66 -17 54 c-9 30 -22 84 -29 122 -6 37 -12 67 -13 67 0 0
-30 -28 -66 -63z m20 -129 c27 -18 50 -35 50 -38 0 -3 -20 -26 -45 -50 l-44
-44 -33 18 c-18 10 -44 27 -57 37 l-24 20 43 44 c24 25 48 45 52 45 5 0 31
-15 58 -32z m-173 -252 c-2 -5 -24 -27 -49 -49 l-46 -39 -49 33 c-26 18 -50
34 -52 36 -3 2 17 26 43 52 l49 49 54 -35 c29 -20 52 -41 50 -47z m1 -386
l-43 -80 -52 0 c-32 0 -53 4 -53 11 0 6 17 42 38 80 l37 69 58 0 57 0 -42 -80z
m282 75 c0 -2 -17 -38 -37 -80 l-37 -75 -53 0 c-33 0 -53 4 -53 11 0 7 17 43
37 80 l37 69 53 0 c29 0 53 -2 53 -5z m340 -710 l0 -25 -120 0 -120 0 0 -120
c0 -73 -4 -120 -10 -120 -6 0 -10 47 -10 120 l0 120 -130 0 -130 0 0 -121 c0
-92 -3 -120 -12 -117 -9 3 -14 39 -16 121 l-3 117 -114 0 c-114 0 -133 6 -121
35 5 13 64 15 396 15 l390 0 0 -25z"/>
</g>
</svg>
